<svg xmlns="http://www.w3.org/2000/svg" viewBox="0 0 1200 1200" role="img" aria-label="Brosse de nettoyage électrique compacte"><defs><linearGradient id="g" x1="0" y1="0" x2="1" y2="1"><stop offset="0%" stop-color="#6b7cff"/><stop offset="100%" stop-color="#7ee0c3"/></linearGradient><radialGradient id="bg" cx="50%" cy="35%" r="70%"><stop offset="0%" stop-color="#15203c"/><stop offset="100%" stop-color="#07090c"/></radialGradient></defs><rect width="1200" height="1200" fill="url(#bg)"/><circle cx="930" cy="250" r="160" fill="#6b7cff" opacity=".16"/><circle cx="250" cy="920" r="220" fill="#7ee0c3" opacity=".08"/><rect x="315" y="410" width="500" height="210" rx="105" fill="#dfe7f7"/><rect x="770" y="468" width="140" height="98" rx="49" fill="#c2ccda"/><rect x="240" y="475" width="180" height="80" rx="40" fill="url(#g)"/><circle cx="360" cy="530" r="42" fill="#0c1220"/><circle cx="360" cy="530" r="20" fill="#fff" opacity=".8"/><rect x="500" y="660" width="200" height="250" rx="92" transform="rotate(34 600 785)" fill="#f1f5fb"/><rect x="505" y="685" width="36" height="215" rx="18" transform="rotate(34 600 785)" fill="#6b7cff" opacity=".55"/><rect x="695" y="760" width="126" height="42" rx="21" transform="rotate(34 600 785)" fill="#c2ccda"/><g opacity=".24" fill="#ffffff"><rect x="110" y="160" width="110" height="14" rx="7"/><rect x="110" y="190" width="72" height="14" rx="7"/><rect x="980" y="960" width="104" height="14" rx="7"/></g><text x="86" y="1110" fill="#96a2b5" font-size="44" font-family="Inter, Arial, sans-serif">MWC / produit star</text></svg>